<svg width="20" height="20" viewBox="0 0 20 20" fill="none" xmlns="http://www.w3.org/2000/svg">
<path d="M17.3125 10C17.3125 14.0386 14.0386 17.3125 10 17.3125V19C14.9706 19 19 14.9706 19 10H17.3125ZM10 17.3125C5.96142 17.3125 2.6875 14.0386 2.6875 10H1C1 14.9706 5.02943 19 10 19V17.3125ZM2.6875 10C2.6875 5.96142 5.96142 2.6875 10 2.6875V1C5.02943 1 1 5.02943 1 10H2.6875ZM10 2.6875C14.0386 2.6875 17.3125 5.96142 17.3125 10H19C19 5.02943 14.9706 1 10 1V2.6875Z" fill="#595667"/>
<path d="M11.6875 7.75C11.6875 8.68195 10.932 9.4375 10 9.4375V11.125C11.864 11.125 13.375 9.61401 13.375 7.75H11.6875ZM10 9.4375C9.06805 9.4375 8.3125 8.68195 8.3125 7.75H6.625C6.625 9.61401 8.13599 11.125 10 11.125V9.4375ZM8.3125 7.75C8.3125 6.81802 9.06805 6.0625 10 6.0625V4.375C8.13599 4.375 6.625 5.88604 6.625 7.75H8.3125ZM10 6.0625C10.932 6.0625 11.6875 6.81802 11.6875 7.75H13.375C13.375 5.88604 11.864 4.375 10 4.375V6.0625Z" fill="#595667"/>
<path d="M3.9494 15.0847C3.65098 15.4425 3.6992 15.9747 4.05709 16.273C4.415 16.5715 4.94705 16.5232 5.24546 16.1653L3.9494 15.0847ZM14.7552 16.1653C15.0535 16.5232 15.5856 16.5715 15.9435 16.273C16.3014 15.9747 16.3496 15.4425 16.0512 15.0847L14.7552 16.1653ZM5.24546 16.1653C6.3818 14.8025 8.08964 13.9375 10.0003 13.9375V12.25C7.56794 12.25 5.39261 13.3537 3.9494 15.0847L5.24546 16.1653ZM10.0003 13.9375C11.9109 13.9375 13.6188 14.8025 14.7552 16.1653L16.0512 15.0847C14.608 13.3537 12.4327 12.25 10.0003 12.25V13.9375Z" fill="#595667"/>
</svg>
