<svg width="1440" height="82" viewBox="0 0 1440 82" fill="none" xmlns="http://www.w3.org/2000/svg">
<mask id="path-1-inside-1_19_1248" fill="white">
<path d="M0 0H1440V82H0V0Z"/>
</mask>
<path d="M0 0H1440V82H0V0Z" fill="white"/>
<path d="M1440 81H0V83H1440V81Z" fill="#CAC9CF" mask="url(#path-1-inside-1_19_1248)"/>
<mask id="path-3-inside-2_19_1248" fill="white">
<path d="M170.844 41.7711C170.453 41.3805 170.453 40.7474 170.844 40.3569L172.731 38.4691C175.075 36.126 178.874 36.126 181.217 38.4691L183.104 40.3569C183.495 40.7474 183.495 41.3805 183.104 41.7711L181.217 43.6588C178.874 46.0019 175.075 46.0019 172.731 43.6588L170.844 41.7711Z"/>
</mask>
<path d="M170.844 41.7711C170.453 41.3805 170.453 40.7474 170.844 40.3569L172.731 38.4691C175.075 36.126 178.874 36.126 181.217 38.4691L183.104 40.3569C183.495 40.7474 183.495 41.3805 183.104 41.7711L181.217 43.6588C178.874 46.0019 175.075 46.0019 172.731 43.6588L170.844 41.7711Z" stroke="#3A3845" stroke-width="5" mask="url(#path-3-inside-2_19_1248)"/>
<mask id="path-4-inside-3_19_1248" fill="white">
<path d="M186.932 41.7711C186.541 41.3805 186.541 40.7474 186.932 40.3569L188.82 38.4691C191.163 36.126 194.962 36.126 197.305 38.4691L199.193 40.3569C199.583 40.7474 199.583 41.3805 199.193 41.7711L197.305 43.6588C194.962 46.0019 191.163 46.0019 188.82 43.6588L186.932 41.7711Z"/>
</mask>
<path d="M186.932 41.7711C186.541 41.3805 186.541 40.7474 186.932 40.3569L188.82 38.4691C191.163 36.126 194.962 36.126 197.305 38.4691L199.193 40.3569C199.583 40.7474 199.583 41.3805 199.193 41.7711L197.305 43.6588C194.962 46.0019 191.163 46.0019 188.82 43.6588L186.932 41.7711Z" stroke="#3A3845" stroke-width="5" mask="url(#path-4-inside-3_19_1248)"/>
<mask id="path-5-inside-4_19_1248" fill="white">
<path d="M184.311 26.8897C184.702 26.4992 185.335 26.4992 185.725 26.8897L187.613 28.7775C189.956 31.1206 189.956 34.9196 187.613 37.2627L185.725 39.1505C185.335 39.541 184.702 39.541 184.311 39.1505L182.423 37.2627C180.08 34.9196 180.08 31.1206 182.423 28.7775L184.311 26.8897Z"/>
</mask>
<path d="M184.311 26.8897C184.702 26.4992 185.335 26.4992 185.725 26.8897L187.613 28.7775C189.956 31.1206 189.956 34.9196 187.613 37.2627L185.725 39.1505C185.335 39.541 184.702 39.541 184.311 39.1505L182.423 37.2627C180.08 34.9196 180.08 31.1206 182.423 28.7775L184.311 26.8897Z" stroke="#3A3845" stroke-width="5" mask="url(#path-5-inside-4_19_1248)"/>
<mask id="path-6-inside-5_19_1248" fill="white">
<path d="M184.205 42.1788C184.596 41.7883 185.229 41.7883 185.62 42.1788L187.507 44.0665C189.85 46.4097 189.85 50.2087 187.507 52.5518L185.62 54.4395C185.229 54.83 184.596 54.83 184.205 54.4395L182.318 52.5518C179.974 50.2087 179.974 46.4097 182.318 44.0665L184.205 42.1788Z"/>
</mask>
<path d="M184.205 42.1788C184.596 41.7883 185.229 41.7883 185.62 42.1788L187.507 44.0665C189.85 46.4097 189.85 50.2087 187.507 52.5518L185.62 54.4395C185.229 54.83 184.596 54.83 184.205 54.4395L182.318 52.5518C179.974 50.2087 179.974 46.4097 182.318 44.0665L184.205 42.1788Z" stroke="#3A3845" stroke-width="5" mask="url(#path-6-inside-5_19_1248)"/>
<path d="M204.053 41C204.053 41.6211 203.788 42.1878 203.296 42.9639C203.224 43.0774 203.144 43.1987 203.06 43.3273C202.629 43.9842 202.075 44.83 201.79 45.7701C201.498 46.7353 201.394 47.8122 201.306 48.7269C201.282 48.9733 201.259 49.208 201.235 49.4256C201.105 50.5562 200.915 51.3733 200.47 51.9829C200.028 52.5873 199.305 53.0224 198.272 53.4964C198.076 53.5862 197.864 53.6791 197.641 53.7766C196.803 54.1438 195.818 54.5753 195.009 55.1456C194.201 55.7151 193.604 56.5149 193.154 57.1166C193.08 57.2162 193.01 57.3104 192.943 57.3972C192.414 58.0873 192.029 58.4723 191.527 58.6505C190.722 58.9366 189.836 58.9556 188.75 58.8654C188.449 58.8404 188.116 58.8044 187.764 58.7663C186.948 58.678 186.028 58.5784 185.151 58.5784C184.275 58.5784 183.355 58.678 182.538 58.7663C182.187 58.8044 181.854 58.8404 181.553 58.8654C180.467 58.9556 179.581 58.9366 178.775 58.6505C178.044 58.3907 177.446 57.9271 176.777 57.2913C176.615 57.1373 176.44 56.9642 176.255 56.7803C175.736 56.2642 175.132 55.6641 174.478 55.17C173.828 54.6789 173.058 54.2491 172.383 53.8729C172.158 53.7474 171.944 53.6278 171.749 53.5139C170.892 53.015 170.253 52.5576 169.833 51.9829C169.35 51.322 169.081 50.445 168.859 49.3248C168.801 49.0308 168.745 48.7079 168.686 48.3694C168.539 47.5298 168.376 46.5947 168.127 45.7701C167.873 44.932 167.454 44.1548 167.115 43.5235C167.026 43.3592 166.943 43.2048 166.87 43.0618C166.483 42.3096 166.25 41.6988 166.25 41C166.25 40.336 166.548 39.594 167.055 38.6378C167.146 38.4665 167.247 38.2838 167.352 38.0925C167.767 37.3386 168.255 36.4512 168.513 35.6008C168.798 34.6576 168.904 33.6979 168.992 32.9091C169.017 32.6847 169.04 32.4742 169.065 32.2819C169.188 31.3535 169.367 30.6558 169.833 30.0171C170.239 29.4614 170.856 29.0444 171.713 28.5828C171.884 28.4903 172.071 28.3936 172.268 28.2919C172.965 27.9312 173.785 27.5071 174.478 26.9831C175.169 26.4609 175.796 25.8058 176.33 25.2475C176.496 25.0737 176.654 24.9093 176.801 24.7612C177.478 24.0814 178.068 23.6009 178.775 23.3495C179.581 23.0633 180.467 23.0444 181.553 23.1345C181.854 23.1595 182.187 23.1955 182.538 23.2336C183.355 23.322 184.275 23.4216 185.151 23.4216C186.028 23.4216 186.948 23.322 187.764 23.2336C188.116 23.1955 188.449 23.1595 188.75 23.1345C189.836 23.0444 190.722 23.0633 191.527 23.3495C192.005 23.5192 192.385 23.9133 192.924 24.654C192.987 24.7411 193.054 24.8353 193.125 24.935C193.576 25.5708 194.18 26.4237 195.009 27.0075C195.854 27.6032 196.936 28.0443 197.835 28.4102C198.044 28.4956 198.244 28.5769 198.428 28.6552C199.563 29.1371 200.162 29.5136 200.407 29.9219L201.479 29.2798L200.407 29.9219C200.758 30.5096 200.943 31.2542 201.116 32.2624C201.148 32.4477 201.18 32.6432 201.212 32.8467C201.347 33.682 201.503 34.6522 201.79 35.6008C202.048 36.4512 202.536 37.3386 202.951 38.0925C203.056 38.2838 203.157 38.4665 203.247 38.6378C203.754 39.594 204.053 40.336 204.053 41Z" stroke="#3A3845" stroke-width="2.5"/>
<path d="M237.227 30.7397C237.345 30.7397 237.458 30.7957 237.542 30.8955C237.625 30.9953 237.673 31.1308 237.674 31.2726V50.5529C237.674 50.6947 237.628 50.8307 237.545 50.9314C237.462 51.0321 237.349 51.0893 237.231 51.0906H235.049C234.931 51.0893 234.818 51.0321 234.735 50.9314C234.652 50.8307 234.606 50.6947 234.606 50.5529V38.011C234.434 38.179 234.257 38.3404 234.074 38.4955C233.555 38.9314 233.027 39.2996 232.516 39.6581C232.004 40.0166 231.666 40.2975 231.263 40.5834C230.51 41.1072 229.853 41.8117 229.335 42.6534C228.817 43.4951 228.448 44.4558 228.251 45.4761C228.229 45.5948 228.174 45.7009 228.095 45.7767C228.016 45.8525 227.918 45.8934 227.817 45.8927H225.735C225.634 45.8934 225.535 45.8525 225.456 45.7767C225.377 45.7009 225.322 45.5948 225.3 45.4761C225.103 44.4545 224.734 43.4926 224.215 42.65C223.696 41.8075 223.039 41.1023 222.284 40.5785C221.881 40.2927 221.478 39.9778 221.031 39.6532C220.584 39.3287 219.993 38.9266 219.473 38.4906C219.291 38.3388 219.113 38.1774 218.942 38.0062V50.5529C218.942 50.6947 218.895 50.8307 218.812 50.9314C218.729 51.0321 218.616 51.0893 218.499 51.0906H216.32C216.202 51.0893 216.09 51.0321 216.007 50.9314C215.924 50.8307 215.877 50.6947 215.877 50.5529V31.2775C215.877 31.1349 215.924 30.9981 216.008 30.8972C216.092 30.7964 216.206 30.7397 216.324 30.7397H218.478C218.583 30.7415 218.684 30.7876 218.764 30.8699C218.843 30.9523 218.896 31.0657 218.913 31.1903C219.034 32.1301 219.493 34.3245 221.172 35.5501C221.615 35.865 222.054 36.2186 222.537 36.5626C223.021 36.9065 223.492 37.2214 223.951 37.609C224.888 38.3587 225.727 39.2731 226.439 40.3218C226.48 40.3832 226.531 40.4329 226.59 40.4671C226.648 40.5013 226.713 40.519 226.778 40.519C226.843 40.519 226.907 40.5013 226.966 40.4671C227.024 40.4329 227.076 40.3832 227.116 40.3218C227.827 39.2718 228.664 38.3557 229.6 37.6041C230.08 37.2166 230.579 36.8678 231.018 36.5577C231.457 36.2477 231.948 35.865 232.379 35.5501C234.062 34.3439 234.521 32.1591 234.642 31.1903C234.659 31.0657 234.712 30.9523 234.791 30.8699C234.871 30.7876 234.972 30.7415 235.077 30.7397H237.227Z" fill="#3A3845"/>
<path d="M260.462 40.9152C260.462 46.5214 256.019 51.0906 250.554 51.0906C245.089 51.0906 240.646 46.5262 240.646 40.9152C240.646 35.3042 245.089 30.7397 250.554 30.7397C256.019 30.7397 260.462 35.3042 260.462 40.9152ZM250.554 34.4368C246.81 34.4368 243.765 37.3441 243.765 40.9152C243.765 44.4863 246.81 47.3693 250.554 47.3693C254.298 47.3693 257.347 44.4621 257.347 40.8958C257.347 37.3296 254.298 34.4368 250.554 34.4368Z" fill="#3A3845"/>
<path d="M283.249 40.9152C283.249 46.5214 278.584 51.0906 272.846 51.0906C267.108 51.0906 262.443 46.5262 262.443 40.9152C262.443 35.3042 267.108 30.7397 272.846 30.7397C278.584 30.7397 283.249 35.3042 283.249 40.9152ZM272.846 34.4368C268.915 34.4368 265.714 37.3441 265.714 40.9152C265.714 44.4863 268.915 47.3693 272.846 47.3693C276.777 47.3693 279.975 44.4621 279.975 40.8958C279.975 37.3296 276.765 34.4368 272.846 34.4368Z" fill="#3A3845"/>
<path d="M300.979 40.765V31.2727C300.979 31.2028 300.99 31.1334 301.013 31.0688C301.035 31.0041 301.068 30.9454 301.109 30.8959C301.15 30.8464 301.199 30.8071 301.253 30.7803C301.307 30.7535 301.365 30.7397 301.423 30.7397H303.611C303.67 30.7397 303.727 30.7535 303.781 30.7803C303.835 30.8071 303.884 30.8464 303.925 30.8959C303.967 30.9454 303.999 31.0041 304.022 31.0688C304.044 31.1334 304.055 31.2028 304.055 31.2727V50.5576C304.055 50.6276 304.044 50.6969 304.022 50.7616C303.999 50.8263 303.967 50.885 303.925 50.9345C303.884 50.984 303.835 51.0233 303.781 51.0501C303.727 51.0768 303.67 51.0906 303.611 51.0906H301.443C301.385 51.0906 301.327 51.0768 301.273 51.0501C301.219 51.0233 301.17 50.984 301.129 50.9345C301.088 50.885 301.055 50.8263 301.033 50.7616C301.011 50.6969 300.999 50.6276 300.999 50.5576V49.041C301.001 48.5662 300.913 48.0972 300.741 47.6697C300.099 46.1095 298.439 43.2216 294.563 41.453C292.926 40.7268 291.392 39.7003 290.017 38.4101C289.952 38.3464 289.873 38.3062 289.79 38.2944C289.707 38.2826 289.622 38.2996 289.547 38.3433C289.471 38.3871 289.408 38.4559 289.364 38.5415C289.32 38.6272 289.297 38.7262 289.298 38.8268V50.5576C289.298 50.699 289.251 50.8346 289.168 50.9345C289.085 51.0345 288.972 51.0906 288.854 51.0906H286.666C286.548 51.0906 286.435 51.0345 286.352 50.9345C286.268 50.8346 286.222 50.699 286.222 50.5576V31.2727C286.222 31.1314 286.268 30.9958 286.352 30.8959C286.435 30.7959 286.548 30.7397 286.666 30.7397H288.794C288.882 30.7419 288.968 30.7758 289.04 30.8371C289.112 30.8985 289.167 30.9844 289.197 31.0838C289.549 32.2273 291.01 35.9292 295.633 37.9934C297.306 38.7276 298.862 39.8011 300.232 41.1671C300.296 41.234 300.375 41.2772 300.459 41.2918C300.544 41.3063 300.63 41.2915 300.707 41.2491C300.784 41.2068 300.85 41.1386 300.896 41.0528C300.942 40.967 300.967 40.8671 300.967 40.765H300.979Z" fill="#3A3845"/>
<path d="M307.028 49.0556C307.028 48.6529 307.115 48.2592 307.278 47.9244C307.442 47.5897 307.674 47.3288 307.946 47.1749C308.218 47.0211 308.517 46.981 308.805 47.06C309.094 47.1389 309.358 47.3332 309.566 47.6183C309.774 47.9034 309.915 48.2665 309.972 48.6616C310.029 49.0567 309.999 49.4661 309.886 49.8378C309.773 50.2096 309.582 50.5271 309.337 50.7501C309.092 50.9731 308.804 51.0917 308.51 51.0907C308.315 51.0907 308.122 51.038 307.942 50.9357C307.762 50.8333 307.598 50.6834 307.461 50.4943C307.323 50.3053 307.214 50.0809 307.14 49.834C307.065 49.5871 307.027 49.3226 307.028 49.0556Z" fill="#3A3845"/>
<path d="M543.733 46V35.8182H544.966V40.3523H550.395V35.8182H551.628V46H550.395V41.446H544.966V46H543.733ZM557.039 46.1591C556.35 46.1591 555.745 45.995 555.225 45.6669C554.708 45.3388 554.303 44.8797 554.012 44.2898C553.723 43.6998 553.579 43.0104 553.579 42.2216C553.579 41.4261 553.723 40.7318 554.012 40.1385C554.303 39.5452 554.708 39.0845 555.225 38.7564C555.745 38.4283 556.35 38.2642 557.039 38.2642C557.729 38.2642 558.332 38.4283 558.849 38.7564C559.369 39.0845 559.774 39.5452 560.062 40.1385C560.354 40.7318 560.5 41.4261 560.5 42.2216C560.5 43.0104 560.354 43.6998 560.062 44.2898C559.774 44.8797 559.369 45.3388 558.849 45.6669C558.332 45.995 557.729 46.1591 557.039 46.1591ZM557.039 45.1051C557.563 45.1051 557.994 44.9709 558.332 44.7024C558.67 44.4339 558.92 44.081 559.083 43.6435C559.245 43.206 559.326 42.732 559.326 42.2216C559.326 41.7112 559.245 41.2356 559.083 40.7947C558.92 40.3539 558.67 39.9976 558.332 39.7259C557.994 39.4541 557.563 39.3182 557.039 39.3182C556.516 39.3182 556.085 39.4541 555.747 39.7259C555.409 39.9976 555.158 40.3539 554.996 40.7947C554.834 41.2356 554.752 41.7112 554.752 42.2216C554.752 42.732 554.834 43.206 554.996 43.6435C555.158 44.081 555.409 44.4339 555.747 44.7024C556.085 44.9709 556.516 45.1051 557.039 45.1051ZM562.291 46V38.3636H563.424V39.5568H563.524C563.683 39.1491 563.94 38.8326 564.294 38.6072C564.649 38.3786 565.075 38.2642 565.572 38.2642C566.076 38.2642 566.495 38.3786 566.83 38.6072C567.168 38.8326 567.431 39.1491 567.62 39.5568H567.7C567.895 39.1624 568.189 38.8492 568.58 38.6172C568.971 38.3819 569.44 38.2642 569.987 38.2642C570.669 38.2642 571.228 38.478 571.662 38.9055C572.096 39.3298 572.313 39.991 572.313 40.8892V46H571.14V40.8892C571.14 40.3258 570.986 39.9231 570.678 39.6811C570.369 39.4392 570.007 39.3182 569.589 39.3182C569.052 39.3182 568.636 39.4806 568.341 39.8054C568.046 40.1269 567.899 40.5346 567.899 41.0284V46H566.705V40.7699C566.705 40.3357 566.565 39.986 566.283 39.7209C566.001 39.4524 565.638 39.3182 565.194 39.3182C564.889 39.3182 564.604 39.3994 564.339 39.5618C564.077 39.7242 563.865 39.9496 563.703 40.2379C563.544 40.523 563.464 40.8527 563.464 41.2273V46H562.291ZM577.66 46.1591C576.925 46.1591 576.29 45.9967 575.756 45.6719C575.226 45.3438 574.817 44.8864 574.528 44.2997C574.243 43.7098 574.101 43.0237 574.101 42.2415C574.101 41.4593 574.243 40.7699 574.528 40.1733C574.817 39.5734 575.218 39.1061 575.731 38.7713C576.248 38.4332 576.852 38.2642 577.541 38.2642C577.939 38.2642 578.331 38.3305 578.719 38.4631C579.107 38.5956 579.46 38.8111 579.778 39.1094C580.096 39.4044 580.35 39.7955 580.539 40.2827C580.728 40.7699 580.822 41.3698 580.822 42.0824V42.5795H574.936V41.5653H579.629C579.629 41.1345 579.543 40.75 579.371 40.4119C579.202 40.0739 578.96 39.8071 578.645 39.6115C578.333 39.416 577.965 39.3182 577.541 39.3182C577.074 39.3182 576.669 39.4342 576.328 39.6662C575.99 39.8949 575.73 40.1932 575.547 40.5611C575.365 40.929 575.274 41.3234 575.274 41.7443V42.4205C575.274 42.9972 575.373 43.486 575.572 43.8871C575.774 44.2848 576.055 44.5881 576.412 44.7969C576.77 45.0024 577.186 45.1051 577.66 45.1051C577.969 45.1051 578.247 45.062 578.496 44.9759C578.747 44.8864 578.965 44.7538 579.147 44.5781C579.329 44.3991 579.47 44.1771 579.569 43.9119L580.703 44.2301C580.584 44.6146 580.383 44.9527 580.101 45.2443C579.82 45.5327 579.472 45.758 579.057 45.9205C578.643 46.0795 578.177 46.1591 577.66 46.1591Z" fill="#3A3845"/>
<path d="M649.301 38.3636C649.241 37.8598 649 37.4688 648.575 37.1903C648.151 36.9119 647.631 36.7727 647.014 36.7727C646.563 36.7727 646.169 36.8456 645.831 36.9915C645.496 37.1373 645.234 37.3378 645.045 37.593C644.86 37.8482 644.767 38.1383 644.767 38.4631C644.767 38.7348 644.832 38.9685 644.961 39.1641C645.094 39.3563 645.263 39.517 645.468 39.6463C645.674 39.7723 645.889 39.8767 646.114 39.9595C646.34 40.0391 646.547 40.1037 646.736 40.1534L647.77 40.4318C648.035 40.5014 648.33 40.5975 648.655 40.7202C648.983 40.8428 649.296 41.0102 649.594 41.2223C649.896 41.4311 650.145 41.6996 650.34 42.0277C650.536 42.3558 650.634 42.7585 650.634 43.2358C650.634 43.786 650.489 44.2831 650.201 44.7273C649.916 45.1714 649.498 45.5244 648.948 45.7862C648.401 46.0481 647.737 46.179 646.955 46.179C646.225 46.179 645.594 46.0613 645.06 45.826C644.53 45.5907 644.112 45.2625 643.808 44.8416C643.506 44.4207 643.335 43.9318 643.295 43.375H644.568C644.601 43.7595 644.731 44.0777 644.956 44.3295C645.185 44.5781 645.473 44.7637 645.821 44.8864C646.172 45.0057 646.55 45.0653 646.955 45.0653C647.425 45.0653 647.848 44.9891 648.222 44.8366C648.597 44.6809 648.893 44.4654 649.112 44.1903C649.331 43.9119 649.44 43.5871 649.44 43.2159C649.44 42.8778 649.346 42.6027 649.157 42.3906C648.968 42.1785 648.719 42.0062 648.411 41.8736C648.103 41.741 647.77 41.625 647.412 41.5256L646.159 41.1676C645.364 40.9389 644.734 40.6125 644.27 40.1882C643.806 39.764 643.574 39.2088 643.574 38.5227C643.574 37.9527 643.728 37.4555 644.036 37.0312C644.348 36.6037 644.765 36.2723 645.289 36.0369C645.816 35.7983 646.404 35.679 647.054 35.679C647.71 35.679 648.294 35.7966 648.804 36.032C649.314 36.264 649.719 36.5821 650.017 36.9865C650.319 37.3909 650.478 37.8499 650.494 38.3636H649.301ZM653.675 41.4062V46H652.502V35.8182H653.675V39.5568H653.774C653.953 39.1624 654.222 38.8492 654.58 38.6172C654.941 38.3819 655.422 38.2642 656.021 38.2642C656.542 38.2642 656.998 38.3686 657.389 38.5774C657.78 38.7829 658.083 39.0994 658.298 39.527C658.517 39.9512 658.627 40.4915 658.627 41.1477V46H657.453V41.2273C657.453 40.6207 657.296 40.1518 656.981 39.8203C656.669 39.4856 656.237 39.3182 655.683 39.3182C655.299 39.3182 654.954 39.3994 654.649 39.5618C654.348 39.7242 654.109 39.9612 653.933 40.2727C653.761 40.5843 653.675 40.9621 653.675 41.4062ZM663.875 46.1591C663.186 46.1591 662.581 45.995 662.061 45.6669C661.544 45.3388 661.139 44.8797 660.848 44.2898C660.559 43.6998 660.415 43.0104 660.415 42.2216C660.415 41.4261 660.559 40.7318 660.848 40.1385C661.139 39.5452 661.544 39.0845 662.061 38.7564C662.581 38.4283 663.186 38.2642 663.875 38.2642C664.565 38.2642 665.168 38.4283 665.685 38.7564C666.205 39.0845 666.61 39.5452 666.898 40.1385C667.19 40.7318 667.336 41.4261 667.336 42.2216C667.336 43.0104 667.19 43.6998 666.898 44.2898C666.61 44.8797 666.205 45.3388 665.685 45.6669C665.168 45.995 664.565 46.1591 663.875 46.1591ZM663.875 45.1051C664.399 45.1051 664.83 44.9709 665.168 44.7024C665.506 44.4339 665.756 44.081 665.919 43.6435C666.081 43.206 666.162 42.732 666.162 42.2216C666.162 41.7112 666.081 41.2356 665.919 40.7947C665.756 40.3539 665.506 39.9976 665.168 39.7259C664.83 39.4541 664.399 39.3182 663.875 39.3182C663.352 39.3182 662.921 39.4541 662.583 39.7259C662.245 39.9976 661.994 40.3539 661.832 40.7947C661.67 41.2356 661.588 41.7112 661.588 42.2216C661.588 42.732 661.67 43.206 661.832 43.6435C661.994 44.081 662.245 44.4339 662.583 44.7024C662.921 44.9709 663.352 45.1051 663.875 45.1051ZM669.127 48.8636V38.3636H670.26V39.5767H670.399C670.485 39.4441 670.605 39.2751 670.757 39.0696C670.913 38.8608 671.135 38.6752 671.423 38.5128C671.715 38.3471 672.11 38.2642 672.607 38.2642C673.25 38.2642 673.816 38.425 674.307 38.7464C674.798 39.0679 675.18 39.5237 675.455 40.1136C675.731 40.7036 675.868 41.3996 675.868 42.2017C675.868 43.0104 675.731 43.7114 675.455 44.3047C675.18 44.8946 674.799 45.352 674.312 45.6768C673.825 45.9983 673.263 46.1591 672.627 46.1591C672.136 46.1591 671.743 46.0779 671.448 45.9155C671.153 45.7498 670.926 45.5625 670.767 45.3537C670.608 45.1416 670.485 44.9659 670.399 44.8267H670.3V48.8636H669.127ZM670.28 42.1818C670.28 42.7585 670.365 43.2673 670.534 43.7081C670.703 44.1456 670.95 44.4886 671.274 44.7372C671.599 44.9825 671.997 45.1051 672.468 45.1051C672.958 45.1051 673.367 44.9759 673.695 44.7173C674.027 44.4555 674.276 44.1042 674.441 43.6634C674.61 43.2192 674.695 42.7254 674.695 42.1818C674.695 41.6449 674.612 41.161 674.446 40.7301C674.284 40.2959 674.037 39.9529 673.705 39.701C673.377 39.4458 672.965 39.3182 672.468 39.3182C671.99 39.3182 671.589 39.4392 671.264 39.6811C670.94 39.9197 670.694 40.2545 670.529 40.6854C670.363 41.1129 670.28 41.6117 670.28 42.1818Z" fill="#3A3845"/>
<path d="M739.151 46H737.858L741.597 35.8182H742.869L746.608 46H745.315L742.273 37.429H742.193L739.151 46ZM739.628 42.0227H744.838V43.1165H739.628V42.0227ZM748.194 46V35.8182H749.367V39.5767H749.467C749.553 39.4441 749.672 39.2751 749.825 39.0696C749.98 38.8608 750.202 38.6752 750.491 38.5128C750.782 38.3471 751.177 38.2642 751.674 38.2642C752.317 38.2642 752.884 38.425 753.374 38.7464C753.865 39.0679 754.248 39.5237 754.523 40.1136C754.798 40.7036 754.935 41.3996 754.935 42.2017C754.935 43.0104 754.798 43.7114 754.523 44.3047C754.248 44.8946 753.866 45.352 753.379 45.6768C752.892 45.9983 752.33 46.1591 751.694 46.1591C751.203 46.1591 750.811 46.0779 750.516 45.9155C750.221 45.7498 749.994 45.5625 749.835 45.3537C749.675 45.1416 749.553 44.9659 749.467 44.8267H749.327V46H748.194ZM749.347 42.1818C749.347 42.7585 749.432 43.2673 749.601 43.7081C749.77 44.1456 750.017 44.4886 750.342 44.7372C750.666 44.9825 751.064 45.1051 751.535 45.1051C752.025 45.1051 752.435 44.9759 752.763 44.7173C753.094 44.4555 753.343 44.1042 753.509 43.6634C753.678 43.2192 753.762 42.7254 753.762 42.1818C753.762 41.6449 753.679 41.161 753.513 40.7301C753.351 40.2959 753.104 39.9529 752.773 39.701C752.445 39.4458 752.032 39.3182 751.535 39.3182C751.058 39.3182 750.656 39.4392 750.332 39.6811C750.007 39.9197 749.762 40.2545 749.596 40.6854C749.43 41.1129 749.347 41.6117 749.347 42.1818ZM759.832 46.1591C759.143 46.1591 758.538 45.995 758.018 45.6669C757.501 45.3388 757.096 44.8797 756.805 44.2898C756.516 43.6998 756.372 43.0104 756.372 42.2216C756.372 41.4261 756.516 40.7318 756.805 40.1385C757.096 39.5452 757.501 39.0845 758.018 38.7564C758.538 38.4283 759.143 38.2642 759.832 38.2642C760.522 38.2642 761.125 38.4283 761.642 38.7564C762.162 39.0845 762.567 39.5452 762.855 40.1385C763.147 40.7318 763.293 41.4261 763.293 42.2216C763.293 43.0104 763.147 43.6998 762.855 44.2898C762.567 44.8797 762.162 45.3388 761.642 45.6669C761.125 45.995 760.522 46.1591 759.832 46.1591ZM759.832 45.1051C760.356 45.1051 760.787 44.9709 761.125 44.7024C761.463 44.4339 761.713 44.081 761.876 43.6435C762.038 43.206 762.119 42.732 762.119 42.2216C762.119 41.7112 762.038 41.2356 761.876 40.7947C761.713 40.3539 761.463 39.9976 761.125 39.7259C760.787 39.4541 760.356 39.3182 759.832 39.3182C759.309 39.3182 758.878 39.4541 758.54 39.7259C758.202 39.9976 757.951 40.3539 757.789 40.7947C757.627 41.2356 757.545 41.7112 757.545 42.2216C757.545 42.732 757.627 43.206 757.789 43.6435C757.951 44.081 758.202 44.4339 758.54 44.7024C758.878 44.9709 759.309 45.1051 759.832 45.1051ZM769.896 42.8778V38.3636H771.069V46H769.896V44.7074H769.817C769.638 45.0952 769.359 45.425 768.981 45.6967C768.604 45.9652 768.126 46.0994 767.55 46.0994C767.072 46.0994 766.648 45.995 766.277 45.7862C765.906 45.5741 765.614 45.2559 765.402 44.8317C765.19 44.4041 765.084 43.8655 765.084 43.2159V38.3636H766.257V43.1364C766.257 43.6932 766.413 44.1373 766.724 44.4688C767.039 44.8002 767.44 44.9659 767.927 44.9659C768.219 44.9659 768.516 44.8913 768.817 44.7422C769.122 44.593 769.377 44.3643 769.583 44.0561C769.792 43.7479 769.896 43.3551 769.896 42.8778ZM776.539 38.3636V39.358H772.582V38.3636H776.539ZM773.735 36.5341H774.909V43.8125C774.909 44.1439 774.957 44.3925 775.053 44.5582C775.152 44.7206 775.278 44.83 775.431 44.8864C775.587 44.9394 775.751 44.9659 775.923 44.9659C776.052 44.9659 776.158 44.9593 776.241 44.946C776.324 44.9295 776.39 44.9162 776.44 44.9062L776.679 45.9602C776.599 45.9901 776.488 46.0199 776.346 46.0497C776.203 46.0829 776.022 46.0994 775.804 46.0994C775.472 46.0994 775.147 46.0282 774.829 45.8857C774.514 45.7431 774.252 45.526 774.044 45.2344C773.838 44.9427 773.735 44.5748 773.735 44.1307V36.5341Z" fill="#3A3845"/>
<path d="M846.926 39H845.693C845.62 38.6454 845.493 38.3338 845.31 38.0653C845.131 37.7969 844.913 37.5715 844.654 37.3892C844.399 37.2036 844.116 37.0644 843.804 36.9716C843.492 36.8788 843.168 36.8324 842.83 36.8324C842.213 36.8324 841.655 36.9882 841.154 37.2997C840.657 37.6113 840.261 38.0703 839.966 38.6768C839.674 39.2834 839.528 40.0275 839.528 40.9091C839.528 41.7907 839.674 42.5348 839.966 43.1413C840.261 43.7479 840.657 44.2069 841.154 44.5185C841.655 44.83 842.213 44.9858 842.83 44.9858C843.168 44.9858 843.492 44.9394 843.804 44.8466C844.116 44.7538 844.399 44.6162 844.654 44.4339C844.913 44.2483 845.131 44.0213 845.31 43.7528C845.493 43.4811 845.62 43.1695 845.693 42.8182H846.926C846.833 43.3385 846.664 43.8042 846.419 44.2152C846.174 44.6262 845.869 44.9759 845.504 45.2642C845.14 45.5492 844.73 45.7663 844.276 45.9155C843.826 46.0646 843.343 46.1392 842.83 46.1392C841.961 46.1392 841.189 45.9271 840.513 45.5028C839.837 45.0786 839.305 44.4754 838.917 43.6932C838.529 42.911 838.335 41.983 838.335 40.9091C838.335 39.8352 838.529 38.9072 838.917 38.125C839.305 37.3428 839.837 36.7396 840.513 36.3153C841.189 35.8911 841.961 35.679 842.83 35.679C843.343 35.679 843.826 35.7536 844.276 35.9027C844.73 36.0518 845.14 36.2706 845.504 36.5589C845.869 36.844 846.174 37.192 846.419 37.603C846.664 38.0107 846.833 38.4763 846.926 39ZM851.862 46.1591C851.172 46.1591 850.567 45.995 850.047 45.6669C849.53 45.3388 849.126 44.8797 848.834 44.2898C848.546 43.6998 848.401 43.0104 848.401 42.2216C848.401 41.4261 848.546 40.7318 848.834 40.1385C849.126 39.5452 849.53 39.0845 850.047 38.7564C850.567 38.4283 851.172 38.2642 851.862 38.2642C852.551 38.2642 853.154 38.4283 853.671 38.7564C854.192 39.0845 854.596 39.5452 854.884 40.1385C855.176 40.7318 855.322 41.4261 855.322 42.2216C855.322 43.0104 855.176 43.6998 854.884 44.2898C854.596 44.8797 854.192 45.3388 853.671 45.6669C853.154 45.995 852.551 46.1591 851.862 46.1591ZM851.862 45.1051C852.385 45.1051 852.816 44.9709 853.154 44.7024C853.492 44.4339 853.743 44.081 853.905 43.6435C854.067 43.206 854.149 42.732 854.149 42.2216C854.149 41.7112 854.067 41.2356 853.905 40.7947C853.743 40.3539 853.492 39.9976 853.154 39.7259C852.816 39.4541 852.385 39.3182 851.862 39.3182C851.338 39.3182 850.907 39.4541 850.569 39.7259C850.231 39.9976 849.981 40.3539 849.818 40.7947C849.656 41.2356 849.575 41.7112 849.575 42.2216C849.575 42.732 849.656 43.206 849.818 43.6435C849.981 44.081 850.231 44.4339 850.569 44.7024C850.907 44.9709 851.338 45.1051 851.862 45.1051ZM858.286 41.4062V46H857.113V38.3636H858.246V39.5568H858.346C858.525 39.169 858.797 38.8575 859.161 38.6222C859.526 38.3835 859.996 38.2642 860.573 38.2642C861.09 38.2642 861.543 38.3703 861.93 38.5824C862.318 38.7912 862.62 39.1094 862.835 39.5369C863.051 39.9612 863.158 40.4981 863.158 41.1477V46H861.985V41.2273C861.985 40.6274 861.829 40.16 861.518 39.8253C861.206 39.4872 860.779 39.3182 860.235 39.3182C859.861 39.3182 859.526 39.3994 859.231 39.5618C858.939 39.7242 858.709 39.9612 858.54 40.2727C858.371 40.5843 858.286 40.9621 858.286 41.4062ZM868.623 38.3636V39.358H864.666V38.3636H868.623ZM865.819 36.5341H866.993V43.8125C866.993 44.1439 867.041 44.3925 867.137 44.5582C867.236 44.7206 867.362 44.83 867.515 44.8864C867.671 44.9394 867.835 44.9659 868.007 44.9659C868.136 44.9659 868.242 44.9593 868.325 44.946C868.408 44.9295 868.474 44.9162 868.524 44.9062L868.763 45.9602C868.683 45.9901 868.572 46.0199 868.43 46.0497C868.287 46.0829 868.106 46.0994 867.888 46.0994C867.556 46.0994 867.231 46.0282 866.913 45.8857C866.598 45.7431 866.336 45.526 866.128 45.2344C865.922 44.9427 865.819 44.5748 865.819 44.1307V36.5341ZM872.635 46.179C872.152 46.179 871.712 46.0878 871.318 45.9055C870.924 45.7199 870.61 45.4531 870.378 45.1051C870.146 44.7538 870.03 44.3295 870.03 43.8324C870.03 43.3949 870.117 43.0402 870.289 42.7685C870.461 42.4934 870.692 42.2779 870.98 42.1222C871.268 41.9664 871.586 41.8504 871.934 41.7741C872.286 41.6946 872.639 41.6316 872.993 41.5852C873.457 41.5256 873.834 41.4808 874.122 41.451C874.414 41.4179 874.626 41.3632 874.758 41.2869C874.894 41.2107 874.962 41.0781 874.962 40.8892V40.8494C874.962 40.3589 874.828 39.9777 874.559 39.706C874.294 39.4342 873.892 39.2983 873.351 39.2983C872.791 39.2983 872.352 39.4209 872.034 39.6662C871.716 39.9115 871.492 40.1733 871.363 40.4517L870.249 40.054C870.448 39.59 870.713 39.2287 871.045 38.9702C871.379 38.7083 871.744 38.526 872.138 38.4233C872.536 38.3172 872.927 38.2642 873.312 38.2642C873.557 38.2642 873.839 38.294 874.157 38.3537C874.478 38.41 874.788 38.5277 875.086 38.7067C875.388 38.8857 875.638 39.1558 875.837 39.517C876.036 39.8783 876.135 40.3622 876.135 40.9688V46H874.962V44.9659H874.903C874.823 45.1316 874.69 45.3089 874.505 45.4979C874.319 45.6868 874.072 45.8475 873.764 45.9801C873.456 46.1127 873.08 46.179 872.635 46.179ZM872.814 45.125C873.278 45.125 873.67 45.0339 873.988 44.8516C874.309 44.6693 874.551 44.4339 874.714 44.1456C874.879 43.8572 874.962 43.554 874.962 43.2358V42.1619C874.912 42.2216 874.803 42.2763 874.634 42.326C874.468 42.3724 874.276 42.4138 874.057 42.4503C873.842 42.4834 873.631 42.5133 873.426 42.5398C873.224 42.563 873.06 42.5829 872.934 42.5994C872.629 42.6392 872.344 42.7038 872.079 42.7933C871.817 42.8795 871.605 43.0104 871.442 43.1861C871.283 43.3584 871.204 43.5937 871.204 43.892C871.204 44.2997 871.354 44.608 871.656 44.8168C871.961 45.0223 872.347 45.125 872.814 45.125ZM881.379 46.1591C880.663 46.1591 880.047 45.9901 879.53 45.652C879.013 45.3139 878.615 44.8482 878.337 44.255C878.058 43.6617 877.919 42.9839 877.919 42.2216C877.919 41.446 878.062 40.7616 878.347 40.1683C878.635 39.5717 879.036 39.1061 879.55 38.7713C880.067 38.4332 880.67 38.2642 881.359 38.2642C881.896 38.2642 882.38 38.3636 882.811 38.5625C883.242 38.7614 883.595 39.0398 883.87 39.3977C884.145 39.7557 884.316 40.1733 884.382 40.6506H883.209C883.119 40.3026 882.92 39.9943 882.612 39.7259C882.307 39.4541 881.896 39.3182 881.379 39.3182C880.922 39.3182 880.521 39.4375 880.176 39.6761C879.835 39.9115 879.568 40.2446 879.376 40.6754C879.187 41.103 879.092 41.6051 879.092 42.1818C879.092 42.7718 879.185 43.2855 879.371 43.723C879.56 44.1605 879.825 44.5002 880.166 44.7422C880.511 44.9841 880.915 45.1051 881.379 45.1051C881.684 45.1051 881.961 45.0521 882.21 44.946C882.458 44.84 882.669 44.6875 882.841 44.4886C883.013 44.2898 883.136 44.0511 883.209 43.7727H884.382C884.316 44.2235 884.152 44.6295 883.89 44.9908C883.631 45.3487 883.288 45.6338 882.861 45.8459C882.437 46.0547 881.943 46.1591 881.379 46.1591ZM889.418 38.3636V39.358H885.461V38.3636H889.418ZM886.614 36.5341H887.788V43.8125C887.788 44.1439 887.836 44.3925 887.932 44.5582C888.031 44.7206 888.157 44.83 888.31 44.8864C888.465 44.9394 888.629 44.9659 888.802 44.9659C888.931 44.9659 889.037 44.9593 889.12 44.946C889.203 44.9295 889.269 44.9162 889.319 44.9062L889.558 45.9602C889.478 45.9901 889.367 46.0199 889.224 46.0497C889.082 46.0829 888.901 46.0994 888.683 46.0994C888.351 46.0994 888.026 46.0282 887.708 45.8857C887.393 45.7431 887.131 45.526 886.923 45.2344C886.717 44.9427 886.614 44.5748 886.614 44.1307V36.5341Z" fill="#3A3845"/>
<g clip-path="url(#clip0_19_1248)">
<path d="M1141.5 49.5L1137.1 45.1034M1124.5 39.8276C1124.5 35.7807 1127.78 32.5 1131.83 32.5C1135.87 32.5 1139.16 35.7807 1139.16 39.8276C1139.16 43.8745 1135.87 47.1552 1131.83 47.1552C1127.78 47.1552 1124.5 43.8745 1124.5 39.8276Z" stroke="#595667" stroke-width="1.59375" stroke-linecap="round" stroke-linejoin="round"/>
</g>
<path d="M1184.31 41C1184.31 45.0386 1181.04 48.3125 1177 48.3125V50C1181.97 50 1186 45.9706 1186 41H1184.31ZM1177 48.3125C1172.96 48.3125 1169.69 45.0386 1169.69 41H1168C1168 45.9706 1172.03 50 1177 50V48.3125ZM1169.69 41C1169.69 36.9614 1172.96 33.6875 1177 33.6875V32C1172.03 32 1168 36.0294 1168 41H1169.69ZM1177 33.6875C1181.04 33.6875 1184.31 36.9614 1184.31 41H1186C1186 36.0294 1181.97 32 1177 32V33.6875Z" fill="#595667"/>
<path d="M1178.69 38.75C1178.69 39.682 1177.93 40.4375 1177 40.4375V42.125C1178.86 42.125 1180.38 40.614 1180.38 38.75H1178.69ZM1177 40.4375C1176.07 40.4375 1175.31 39.682 1175.31 38.75H1173.62C1173.62 40.614 1175.14 42.125 1177 42.125V40.4375ZM1175.31 38.75C1175.31 37.818 1176.07 37.0625 1177 37.0625V35.375C1175.14 35.375 1173.62 36.886 1173.62 38.75H1175.31ZM1177 37.0625C1177.93 37.0625 1178.69 37.818 1178.69 38.75H1180.38C1180.38 36.886 1178.86 35.375 1177 35.375V37.0625Z" fill="#595667"/>
<path d="M1170.95 46.0847C1170.65 46.4425 1170.7 46.9747 1171.06 47.273C1171.42 47.5715 1171.95 47.5232 1172.25 47.1653L1170.95 46.0847ZM1181.76 47.1653C1182.05 47.5232 1182.59 47.5715 1182.94 47.273C1183.3 46.9747 1183.35 46.4425 1183.05 46.0847L1181.76 47.1653ZM1172.25 47.1653C1173.38 45.8025 1175.09 44.9375 1177 44.9375V43.25C1174.57 43.25 1172.39 44.3537 1170.95 46.0847L1172.25 47.1653ZM1177 44.9375C1178.91 44.9375 1180.62 45.8025 1181.76 47.1653L1183.05 46.0847C1181.61 44.3537 1179.43 43.25 1177 43.25V44.9375Z" fill="#595667"/>
<path fill-rule="evenodd" clip-rule="evenodd" d="M1220.99 35.4113C1219.29 33.5082 1216.46 32.9963 1214.33 34.7389C1212.2 36.4816 1211.9 39.3952 1213.57 41.4563L1220.99 48.3275L1228.41 41.4563C1230.09 39.3952 1229.82 36.4633 1227.66 34.7389C1225.49 33.0146 1222.69 33.5082 1220.99 35.4113Z" stroke="#595667" stroke-width="1.5" stroke-linecap="round" stroke-linejoin="round"/>
<path d="M1259.98 35.541H1273.56L1271.63 43.7538C1271.37 44.8201 1270.42 45.5738 1269.33 45.5738H1264.46C1263.39 45.5738 1262.45 44.8526 1262.17 43.8172L1259.98 35.541ZM1259.98 35.541L1259.1 32H1256.44" stroke="#595667" stroke-width="1.5" stroke-linecap="round" stroke-linejoin="round"/>
<path d="M1262.64 49.9998C1263.29 49.9998 1263.82 49.4714 1263.82 48.8195C1263.82 48.1676 1263.29 47.6392 1262.64 47.6392C1261.99 47.6392 1261.46 48.1676 1261.46 48.8195C1261.46 49.4714 1261.99 49.9998 1262.64 49.9998Z" fill="#595667"/>
<path d="M1270.9 49.9998C1271.56 49.9998 1272.08 49.4714 1272.08 48.8195C1272.08 48.1676 1271.56 47.6392 1270.9 47.6392C1270.25 47.6392 1269.72 48.1676 1269.72 48.8195C1269.72 49.4714 1270.25 49.9998 1270.9 49.9998Z" fill="#595667"/>
<defs>
<clipPath id="clip0_19_1248">
<rect width="20" height="20" fill="white" transform="translate(1123 31)"/>
</clipPath>
</defs>
</svg>
